<?xml version="1.0" encoding="utf-8"?>
<!-- Generator: Adobe Illustrator 24.0.1, SVG Export Plug-In . SVG Version: 6.00 Build 0)  -->
<svg version="1.1" id="Layer_1" xmlns="http://www.w3.org/2000/svg" xmlns:xlink="http://www.w3.org/1999/xlink" x="0px" y="0px"
	 viewBox="0 0 16 16" style="enable-background:new 0 0 16 16;" xml:space="preserve">
<style type="text/css">
	.st0{fill:#FFFFFF;}
</style>
<g>
	<path class="st0" d="M3,4.5C3,4.3,3,4.2,3,4c3.3,0,6.7,0,10,0c0,2.8,0,5.7,0,8.5c-3.3,0-6.7,0-10,0c0-2.6,0-5.3,0-7.9
		c0.1,0.2,0.2,0.2,0.4,0.2c0.3,0,0.7,0,1,0c0.1,0,0.1,0,0.1,0.1c0.4,1.2,0.8,2.5,1.2,3.7C5.8,8.8,5.9,9,6,9.2
		c-0.5,0.2-0.9,0.5-0.8,1c0,0.5,0.4,0.8,1,0.9c-0.2,0.6,0.3,1.1,0.9,1.2c0.3,0,0.6,0,0.8-0.2c0.3-0.3,0.4-0.6,0.3-1
		c0.4,0,0.8,0,1.2,0c0,0,0,0,0,0.1c-0.2,0.5,0.2,1,0.9,1.1c0.8,0.1,1.5-0.5,1.2-1.2c-0.2-0.4-0.6-0.6-1.1-0.6c-1.3,0-2.7,0-4,0
		c0,0-0.1,0-0.1,0c-0.2,0-0.3-0.1-0.3-0.3c0-0.2,0.1-0.3,0.3-0.3c0.1,0,0.1,0,0.2,0c1.6,0,3.2,0,4.9,0c0.5,0,0.9-0.2,1-0.6
		c0.3-0.9,0.5-1.9,0.8-2.8c0.1-0.2,0-0.5-0.2-0.7c-0.2-0.2-0.5-0.3-0.8-0.3c-1.9,0-3.8,0-5.7,0c-0.3,0-0.6,0-0.8,0.1c0,0,0,0,0-0.1
		C5.3,5.1,5.2,4.8,5.1,4.6C5,4.3,4.9,4.3,4.6,4.3c-0.4,0-0.8,0-1.2,0C3.2,4.3,3.1,4.3,3,4.5z"/>
	<path d="M3,4.5c0.1-0.2,0.2-0.2,0.4-0.2c0.4,0,0.8,0,1.2,0c0.3,0,0.4,0.1,0.5,0.3c0.1,0.3,0.2,0.5,0.3,0.8c0,0,0,0,0,0.1
		C5.7,5.3,6,5.3,6.3,5.3c1.9,0,3.8,0,5.7,0c0.3,0,0.6,0.1,0.8,0.3C13,5.8,13,6.1,12.9,6.3c-0.3,0.9-0.5,1.9-0.8,2.8
		c-0.1,0.4-0.5,0.6-1,0.6c-1.6,0-3.2,0-4.9,0c-0.1,0-0.1,0-0.2,0c-0.2,0-0.3,0.2-0.3,0.3c0,0.1,0.2,0.3,0.3,0.3c0,0,0.1,0,0.1,0
		c1.3,0,2.7,0,4,0c0.5,0,0.9,0.2,1.1,0.6c0.3,0.6-0.4,1.3-1.2,1.2c-0.6-0.1-1-0.6-0.9-1.1c0,0,0,0,0-0.1c-0.4,0-0.8,0-1.2,0
		c0.1,0.4,0,0.7-0.3,1c-0.2,0.2-0.5,0.2-0.8,0.2c-0.6-0.1-1.1-0.6-0.9-1.2c-0.6-0.1-1-0.4-1-0.9c0-0.5,0.3-0.8,0.8-1
		C5.9,9,5.8,8.8,5.8,8.6C5.4,7.4,4.9,6.1,4.5,4.9c0-0.1-0.1-0.1-0.1-0.1c-0.3,0-0.7,0-1,0C3.2,4.8,3.1,4.8,3,4.6C3,4.6,3,4.5,3,4.5z
		 M9.4,6.7c0,0,0.1,0,0.1,0c0.3,0,0.5,0,0.8,0c0.1,0,0.2,0,0.3,0c0.1,0,0.1-0.2,0.1-0.2c0-0.1,0.1-0.3,0.1-0.5c-0.5,0-0.9,0-1.4,0
		C9.4,6.2,9.4,6.4,9.4,6.7z M7.3,5.9c0.1,0.2,0.1,0.4,0.2,0.6c0,0,0,0.1,0.1,0.1c0.2,0,0.5,0,0.7,0c0.1,0,0.2,0,0.3,0
		c0-0.2,0-0.5,0-0.7C8.2,5.9,7.8,5.9,7.3,5.9z M6.8,6.7C6.7,6.4,6.6,6.2,6.6,6c0,0,0,0-0.1,0c-0.2,0-0.4,0-0.6,0
		C5.8,5.9,5.7,6,5.7,6.2c0,0.1,0.1,0.3,0.1,0.4c0,0,0,0,0.1,0C6.2,6.7,6.5,6.7,6.8,6.7z M10.4,7.3c-0.4,0-0.7,0-1,0
		c0,0.2,0,0.4,0,0.6c0.3,0,0.5,0,0.8,0c0,0,0.1,0,0.1,0C10.3,7.7,10.3,7.5,10.4,7.3z M7.7,7.3c0.1,0.2,0.1,0.4,0.2,0.6
		c0.3,0,0.5,0,0.8,0c0-0.2,0-0.4,0-0.6C8.3,7.3,8,7.3,7.7,7.3z M11.5,5.9c-0.1,0.2-0.1,0.5-0.2,0.7c0.2,0,0.5,0,0.7,0c0,0,0,0,0.1,0
		c0,0,0.1,0,0.1,0c0-0.1,0.1-0.3,0.1-0.4c0-0.1-0.1-0.2-0.2-0.2C11.9,5.9,11.7,5.9,11.5,5.9z M6.1,7.3c0.1,0.2,0.1,0.4,0.2,0.6
		c0,0,0.1,0,0.1,0c0.2,0,0.4,0,0.6,0c0,0,0.1,0,0.1,0C7,7.7,7,7.5,6.9,7.3C6.6,7.3,6.4,7.3,6.1,7.3z M11,7.9c0.2,0,0.5,0,0.7,0
		c0,0,0,0,0.1,0c0.1-0.2,0.1-0.4,0.2-0.6c-0.3,0-0.5,0-0.8,0C11.1,7.5,11,7.7,11,7.9z M6.5,8.5C6.5,8.7,6.6,8.9,6.7,9
		c0,0.1,0.1,0.1,0.2,0.1c0.2,0,0.4,0,0.6,0C7.3,8.9,7.3,8.7,7.2,8.5C7,8.5,6.7,8.5,6.5,8.5z M10.7,9.1c0.2,0,0.4,0,0.6,0
		c0.1,0,0.1-0.1,0.2-0.1c0.1-0.2,0.1-0.3,0.2-0.5c-0.3,0-0.5,0-0.7,0C10.8,8.7,10.7,8.9,10.7,9.1z M9.4,8.5c0,0.2,0,0.4,0,0.6
		c0.2,0,0.4,0,0.6,0C10,8.9,10,8.7,10.1,8.5C9.8,8.5,9.6,8.5,9.4,8.5z M8.6,9.1c0-0.2,0-0.4,0-0.6c-0.2,0-0.4,0-0.6,0c0,0,0,0,0,0
		c0,0.2,0.1,0.4,0.1,0.6c0,0,0,0,0.1,0C8.3,9.2,8.5,9.1,8.6,9.1z M7.5,11.3c0-0.2-0.2-0.3-0.4-0.3c-0.2,0-0.4,0.1-0.4,0.3
		c0,0.2,0.2,0.3,0.3,0.3C7.4,11.6,7.5,11.5,7.5,11.3z M10.1,11.3c0,0.2,0.1,0.3,0.3,0.3c0.2,0,0.4-0.1,0.4-0.3
		c0-0.2-0.2-0.3-0.3-0.3C10.3,11,10.1,11.1,10.1,11.3z"/>
	<path class="st0" d="M9.4,6.7c0-0.2,0-0.5,0-0.7c0.4,0,0.9,0,1.4,0c0,0.2-0.1,0.3-0.1,0.5c0,0.1,0,0.2-0.1,0.2c-0.1,0-0.2,0-0.3,0
		c-0.3,0-0.5,0-0.8,0C9.4,6.7,9.4,6.7,9.4,6.7z"/>
	<path class="st0" d="M7.3,5.9c0.5,0,0.9,0,1.3,0c0,0.2,0,0.5,0,0.7c-0.1,0-0.2,0-0.3,0c-0.2,0-0.5,0-0.7,0c-0.1,0-0.1,0-0.1-0.1
		C7.4,6.4,7.4,6.2,7.3,5.9z"/>
	<path class="st0" d="M6.8,6.7c-0.3,0-0.6,0-0.8,0c0,0-0.1,0-0.1,0C5.8,6.5,5.8,6.3,5.7,6.2c0-0.1,0-0.2,0.2-0.2c0.2,0,0.4,0,0.6,0
		c0,0,0.1,0,0.1,0C6.6,6.2,6.7,6.4,6.8,6.7z"/>
	<path class="st0" d="M10.4,7.3c-0.1,0.2-0.1,0.4-0.2,0.6c0,0,0,0-0.1,0c-0.3,0-0.5,0-0.8,0c0-0.2,0-0.4,0-0.6
		C9.7,7.3,10,7.3,10.4,7.3z"/>
	<path class="st0" d="M7.7,7.3c0.3,0,0.7,0,1,0c0,0.2,0,0.4,0,0.6c-0.3,0-0.5,0-0.8,0C7.8,7.7,7.7,7.5,7.7,7.3z"/>
	<path class="st0" d="M11.5,5.9c0.2,0,0.4,0,0.6,0c0.1,0,0.2,0.1,0.2,0.2c0,0.1-0.1,0.3-0.1,0.4c0,0,0,0-0.1,0c0,0,0,0-0.1,0
		c-0.2,0-0.5,0-0.7,0C11.3,6.4,11.4,6.2,11.5,5.9z"/>
	<path class="st0" d="M6.1,7.3c0.3,0,0.6,0,0.8,0C7,7.5,7,7.7,7.1,7.9c0,0-0.1,0-0.1,0c-0.2,0-0.4,0-0.6,0c0,0-0.1,0-0.1,0
		C6.2,7.7,6.1,7.5,6.1,7.3z"/>
	<path class="st0" d="M11,7.9c0.1-0.2,0.1-0.4,0.2-0.6c0.3,0,0.5,0,0.8,0c-0.1,0.2-0.1,0.4-0.2,0.6c0,0,0,0-0.1,0
		C11.5,7.9,11.2,7.9,11,7.9z"/>
	<path class="st0" d="M6.5,8.5c0.3,0,0.5,0,0.8,0c0.1,0.2,0.1,0.4,0.2,0.6c-0.2,0-0.4,0-0.6,0C6.7,9.1,6.7,9.1,6.7,9
		C6.6,8.9,6.5,8.7,6.5,8.5z"/>
	<path class="st0" d="M10.7,9.1c0.1-0.2,0.1-0.4,0.2-0.6c0.2,0,0.5,0,0.7,0c-0.1,0.2-0.1,0.3-0.2,0.5c0,0-0.1,0.1-0.2,0.1
		C11.1,9.2,10.9,9.1,10.7,9.1z"/>
	<path class="st0" d="M9.4,8.5c0.2,0,0.5,0,0.7,0C10,8.7,10,8.9,9.9,9.1c-0.2,0-0.4,0-0.6,0C9.4,8.9,9.4,8.7,9.4,8.5z"/>
	<path class="st0" d="M8.6,9.1c-0.2,0-0.3,0-0.4,0c0,0-0.1,0-0.1,0C8.1,8.9,8,8.7,8,8.5c0,0,0,0,0,0c0.2,0,0.4,0,0.6,0
		C8.6,8.7,8.6,8.9,8.6,9.1z"/>
	<path class="st0" d="M7.5,11.3c0,0.2-0.2,0.3-0.4,0.3c-0.2,0-0.3-0.1-0.3-0.3C6.8,11.1,7,11,7.2,11C7.4,11,7.5,11.1,7.5,11.3z"/>
	<path class="st0" d="M10.1,11.3c0-0.2,0.2-0.3,0.4-0.3c0.2,0,0.3,0.1,0.3,0.3c0,0.2-0.2,0.3-0.4,0.3C10.2,11.6,10.1,11.5,10.1,11.3
		z"/>
</g>
</svg>
